<?xml version="1.0" standalone="no"?>
<!DOCTYPE svg PUBLIC "-//W3C//DTD SVG 20010904//EN"
 "http://www.w3.org/TR/2001/REC-SVG-20010904/DTD/svg10.dtd">
<svg version="1.0" xmlns="http://www.w3.org/2000/svg"
 width="2127.000000pt" height="2127.000000pt" viewBox="0 0 2127.000000 2127.000000"
 preserveAspectRatio="xMidYMid meet">
<metadata>
Created by potrace 1.14, written by Peter Selinger 2001-2017
</metadata>
<g transform="translate(0.000000,2127.000000) scale(0.100000,-0.100000)"
fill="#000000" stroke="none">
<path d="M3537 15415 c-1 -2 -49 -5 -107 -9 -169 -10 -225 -16 -407 -47 -338
-56 -673 -159 -958 -294 -49 -24 -92 -43 -95 -43 -3 0 -45 -23 -93 -51 -49
-28 -90 -51 -93 -51 -10 0 -239 -151 -324 -213 -159 -117 -258 -203 -410 -356
-183 -184 -323 -351 -451 -542 -127 -189 -260 -437 -324 -604 -86 -226 -159
-466 -181 -595 -3 -14 -9 -47 -14 -75 -26 -137 -32 -195 -35 -370 -1 -88 1
-189 6 -225 4 -36 10 -85 13 -110 10 -79 57 -272 93 -375 167 -484 548 -923
1079 -1240 144 -87 477 -253 514 -257 14 -2 28 -7 31 -12 15 -20 26 6 19 44
-8 42 -6 311 3 345 2 11 8 40 12 64 13 76 108 326 135 351 3 3 14 21 24 40 45
81 174 228 236 268 14 9 41 29 60 44 66 51 303 156 389 173 9 2 34 8 56 13
157 42 418 66 505 48 14 -3 41 -9 60 -12 138 -23 363 -122 586 -255 167 -100
582 -385 679 -466 79 -67 474 -346 680 -480 310 -203 736 -435 1020 -558 50
-21 108 -46 130 -56 241 -105 795 -258 1140 -314 45 -7 253 -35 300 -40 234
-23 908 -24 1140 0 22 2 67 6 100 10 33 3 110 12 170 21 150 20 151 20 265 40
303 52 506 95 694 145 81 22 154 38 162 35 9 -4 11 -13 4 -36 -5 -17 -9 -33
-9 -35 -6 -66 -130 -344 -206 -465 -46 -73 -190 -246 -284 -341 -191 -193
-377 -323 -706 -494 -145 -75 -551 -284 -582 -299 -13 -6 -23 -14 -23 -18 0
-5 -4 -8 -10 -8 -14 0 -169 -102 -236 -155 -56 -45 -161 -149 -194 -191 -80
-102 -135 -225 -165 -363 -13 -65 -14 -323 0 -406 12 -73 63 -279 88 -355 44
-132 129 -344 146 -362 15 -16 16 -15 17 25 0 44 10 137 20 197 9 57 61 205
95 272 44 87 124 204 173 252 47 46 180 134 251 166 123 56 353 120 520 144
17 2 50 7 75 11 79 12 94 14 150 20 30 4 69 8 87 10 17 2 69 7 115 10 46 3 94
8 108 10 14 3 50 7 80 10 30 3 91 10 135 16 44 6 96 13 115 15 35 4 187 30
245 41 17 3 37 6 45 8 39 6 103 20 195 42 322 78 532 162 763 305 51 32 95 58
97 58 3 0 37 23 77 51 107 75 130 89 283 178 77 45 147 86 155 91 8 5 38 22
65 38 28 16 111 64 185 107 316 183 770 398 1130 535 147 55 253 94 260 95 3
1 70 22 150 48 131 41 248 77 275 83 6 1 66 17 135 34 146 38 134 35 185 45
22 4 49 10 60 12 67 14 278 52 320 57 28 4 64 9 80 11 47 7 111 13 225 20 58
4 123 8 145 10 190 16 284 20 435 19 199 0 412 -11 565 -28 28 -4 75 -8 105
-11 30 -3 64 -8 75 -10 11 -2 43 -7 70 -10 83 -10 321 -54 430 -79 207 -48
494 -124 549 -145 228 -91 481 -149 761 -175 22 -2 76 -7 120 -11 44 -4 96 -8
115 -10 58 -5 173 -17 205 -20 17 -2 98 -6 180 -10 407 -16 382 -14 535 -40
119 -21 142 -25 152 -31 4 -3 16 -7 25 -9 36 -7 120 -38 168 -63 79 -39 134
-80 201 -151 35 -36 65 -63 68 -60 3 3 12 32 21 64 59 224 -59 515 -314 775
-208 211 -566 420 -895 521 -72 22 -88 26 -146 35 -19 3 -38 8 -41 10 -3 2
-44 6 -90 10 -46 3 -86 8 -88 10 -2 2 14 27 37 56 85 111 165 288 198 441 19
87 27 252 15 295 -14 49 6 49 28 0 41 -93 55 -163 55 -283 1 -121 -31 -248
-89 -362 l-24 -48 62 -12 c34 -7 75 -15 91 -18 90 -18 354 -134 518 -228 112
-65 373 -260 448 -336 36 -36 87 -98 113 -138 26 -40 52 -75 57 -78 20 -12
300 -13 390 0 158 21 182 26 250 41 36 9 74 17 85 20 101 20 288 96 480 194
l130 67 -1 59 c-2 102 -14 211 -39 349 -3 18 -12 56 -45 185 -22 84 -80 231
-144 360 -29 60 -110 201 -128 225 -5 6 -35 47 -68 92 -145 198 -393 410 -601
515 -99 49 -104 57 -126 173 -14 81 -55 221 -80 277 -80 181 -207 352 -342
459 -42 33 -83 66 -91 72 -72 58 -180 104 -180 77 0 -56 -235 -536 -279 -570
-5 -4 -71 -88 -76 -98 -2 -2 -175 33 -210 42 -34 9 -73 18 -175 40 -63 14
-126 27 -140 30 -148 29 -292 56 -320 60 -19 3 -44 7 -55 10 -11 2 -46 7 -79
11 -32 3 -68 8 -80 10 -11 2 -43 6 -71 9 -27 4 -61 8 -75 11 -26 4 -123 16
-175 20 -16 2 -59 6 -95 9 -36 4 -87 9 -115 11 -27 2 -88 8 -135 12 -160 14
-717 7 -895 -12 -22 -2 -78 -7 -125 -10 -47 -3 -98 -8 -115 -10 -16 -3 -46 -7
-65 -9 -62 -8 -134 -18 -155 -22 -11 -3 -36 -7 -55 -10 -19 -3 -41 -7 -49 -10
-8 -2 -30 -7 -50 -10 -20 -3 -72 -14 -116 -24 -44 -11 -91 -21 -105 -24 -84
-16 -610 -165 -655 -185 -11 -5 -69 -26 -130 -47 -95 -32 -351 -128 -410 -153
-11 -5 -33 -14 -50 -21 -16 -7 -151 -63 -300 -125 -273 -113 -618 -248 -755
-295 -188 -63 -447 -135 -565 -156 -22 -3 -49 -8 -60 -10 -276 -50 -583 -61
-835 -29 -116 14 -168 22 -260 40 -129 25 -354 80 -420 103 -8 3 -20 6 -27 8
-22 4 -267 85 -288 95 -11 5 -63 24 -115 43 -318 115 -904 413 -1095 558 -5 4
-75 56 -155 115 -80 59 -147 109 -150 113 -3 3 -30 25 -60 50 -30 24 -64 52
-75 62 -11 9 -42 37 -70 60 -188 163 -320 295 -495 498 -36 41 -67 77 -70 80
-54 53 -404 484 -559 690 -234 309 -493 643 -593 764 -231 280 -613 665 -808
816 -25 19 -49 38 -55 43 -89 70 -320 220 -492 320 -227 131 -463 235 -733
322 -142 46 -494 139 -568 151 -20 3 -40 8 -43 9 -22 14 -423 72 -559 81 -87
6 -587 13 -593 9z m16709 -5095 c22 -11 51 -31 63 -44 l22 -24 -60 -1 c-198
-2 -308 -217 -156 -306 82 -48 187 -24 278 63 l38 37 -6 -40 c-27 -185 -177
-299 -361 -274 -139 19 -240 110 -260 235 -10 60 -7 130 7 155 5 11 7 19 4 19
-11 0 27 62 62 101 88 97 256 133 369 79z"/>
</g>
</svg>
